<svg width="48" height="48" viewBox="0 0 48 48" fill="none" xmlns="http://www.w3.org/2000/svg">
  <rect width="48" height="48" rx="8" fill="#0066CC"/>
  <path d="M24 10C19.0294 10 15 14.0294 15 19V24C15 28.9706 19.0294 33 24 33C28.9706 33 33 28.9706 33 24V19C33 14.0294 28.9706 10 24 10Z" fill="white"/>
  <path d="M13.5 22.5V24C13.5 29.799 18.201 34.5 24 34.5C29.799 34.5 34.5 29.799 34.5 24V22.5" stroke="white" stroke-width="2" stroke-linecap="round"/>
  <path d="M24 34.5V39" stroke="white" stroke-width="2" stroke-linecap="round"/>
  <path d="M18 39H30" stroke="white" stroke-width="2" stroke-linecap="round"/>
  <circle cx="36" cy="12" r="4" fill="#FF3B30"/>
  
  <!-- AI Wave Pattern -->
  <path d="M14 19C14 19 16 16 19 16" stroke="#0052A3" stroke-width="1.5" stroke-linecap="round"/>
  <path d="M14 22C14 22 18 17 24 17" stroke="#0052A3" stroke-width="1.5" stroke-linecap="round"/>
  <path d="M14 25C14 25 20 18 29 18" stroke="#0052A3" stroke-width="1.5" stroke-linecap="round"/>
  <path d="M14 28C14 28 22 19 34 19" stroke="#0052A3" stroke-width="1.5" stroke-linecap="round"/>
  <path d="M17 31C17 31 24 22 34 22" stroke="#0052A3" stroke-width="1.5" stroke-linecap="round"/>
  <path d="M21 33C21 33 27 25 34 25" stroke="#0052A3" stroke-width="1.5" stroke-linecap="round"/>
  <path d="M26 34C26 34 30 28 34 28" stroke="#0052A3" stroke-width="1.5" stroke-linecap="round"/>
</svg>